Coordinates
version=1
nRows=4
nColumns=63
inDegrees=yes

Units are S.I. units (second, meters, Newtons, ...)
If the header above contains a line with 'inDegrees', this indicates whether rotational values are in degrees (yes) or radians (no).

endheader
time	pelvis_tilt	pelvis_list	pelvis_rotation	pelvis_tx	pelvis_ty	pelvis_tz	hip_flexion_r	hip_adduction_r	hip_rotation_r	knee_angle_r	knee_angle_r_beta	ankle_angle_r	subtalar_angle_r	mtp_angle_r	hip_flexion_l	hip_adduction_l	hip_rotation_l	knee_angle_l	knee_angle_l_beta	ankle_angle_l	subtalar_angle_l	mtp_angle_l	L5_S1_Flex_Ext	L5_S1_Lat_Bending	L5_S1_axial_rotation	L4_L5_Flex_Ext	L4_L5_Lat_Bending	L4_L5_axial_rotation	L3_L4_Flex_Ext	L3_L4_Lat_Bending	L3_L4_axial_rotation	L2_L3_Flex_Ext	L2_L3_Lat_Bending	L2_L3_axial_rotation	L1_L2_Flex_Ext	L1_L2_Lat_Bending	L1_L2_axial_rotation	L1_T12_Flex_Ext	L1_T12_Lat_Bending	L1_T12_axial_rotation	Abs_r3	Abs_r2	Abs_r1	Abs_t1	Abs_t2	neck_flexion	neck_bending	neck_rotation	arm_flex_r	arm_add_r	arm_rot_r	elbow_flex_r	pro_sup_r	wrist_flex_r	wrist_dev_r	arm_flex_l	arm_add_l	arm_rot_l	elbow_flex_l	pro_sup_l	wrist_flex_l	wrist_dev_l
      2.10000000	     -7.93308370	    -35.94906473	     81.92785418	      0.14934934	      0.77281403	      0.57541020	     58.54802610	     -1.14636988	      6.55202777	     29.31718291	      0.51168137	     32.11549740	     -1.15131983	      0.00000000	     48.14679993	     -0.49662791	    -11.78378192	     15.75390159	      0.27495745	     26.75058230	     12.90077752	      0.00000000	     -0.03293454	     -1.02469774	      2.06068869	     -0.06116274	     -1.36284800	      2.18948173	     -0.05410816	     -2.49145009	      2.18948173	     -0.03764089	     -2.49145009	      1.80310260	     -0.03058301	     -2.08956364	      1.67430956	     -0.01881880	     -1.58725680	      1.54551651	     -0.23524813	    -11.59158580	     11.46093227	      0.00000000	      0.00000000	     25.87132501	      8.86371048	    -25.78860606	     48.53114277	      2.81370228	    139.01452249	      0.42474995	      6.66100758	    -31.22112269	    -12.88289429	     12.23238052	    -19.56356118	     38.29275068	     27.63378736	     85.43711702	    -17.02653324	     -8.38624097
      2.11666667	     -8.04190515	    -35.76369244	     81.79765387	      0.14970073	      0.77294477	      0.57559295	     58.24998930	     -1.16394405	      6.61758328	     29.33222149	      0.51194384	     31.64663490	     -1.21099757	      0.00000000	     47.89328933	     -0.46494532	    -11.73033029	     15.70513304	      0.27410628	     26.53029807	     12.89660513	      0.00000000	     -0.02481227	     -1.04497486	      1.98623397	     -0.04607886	     -1.38981656	      2.11037360	     -0.04076407	     -2.54075188	      2.11037360	     -0.02835794	     -2.54075188	      1.73795473	     -0.02304067	     -2.13091274	      1.61381510	     -0.01417773	     -1.61866606	      1.48967548	     -0.17723154	    -11.82096461	     11.04683749	      0.00000000	      0.00000000	     25.30238763	      9.06227173	    -25.93788713	     49.13292227	      3.07911656	    139.02738968	      0.38737507	      6.61047389	    -31.48805419	    -13.24096531	     12.10128057	    -19.82425507	     38.27436869	     27.50734760	     85.39744453	    -17.02016499	     -8.35309555
      2.13333333	     -8.99435586	    -35.23051249	     81.52909008	      0.15019598	      0.77395020	      0.57441222	     57.46785175	     -1.64800384	      8.16999078	     29.01094266	      0.50633647	     31.41316584	     -2.76759002	      0.00000000	     46.79716759	      0.55455846	    -11.46209502	     14.59150930	      0.25466988	     25.59867689	     12.28032673	      0.00000000	     -0.07302955	     -1.17066944	      1.86764116	     -0.13562318	     -1.55699035	      1.98436873	     -0.11998025	     -2.84636568	      1.98436873	     -0.08346547	     -2.84636568	      1.63418601	     -0.06781524	     -2.38722912	      1.51745844	     -0.04172909	     -1.81336696	      1.40073087	     -0.52164278	    -13.24284684	     10.38725983	      0.00000000	      0.00000000	     24.74986941	      9.65032462	    -26.90107574	     49.68122627	      3.40742533	    139.27000312	      0.35463225	      6.13160108	    -34.97837744	    -15.70296798	     11.67166624	    -20.62168076	     37.16662825	     28.23814555	     84.78233566	    -16.74887668	     -8.21156981
      2.15000000	     -9.47610256	    -34.84135522	     81.11656887	      0.15071700	      0.77518512	      0.57355216	     56.64775298	     -1.73320064	      9.05766540	     28.23993419	      0.49287983	     31.01559881	     -3.36462618	      0.00000000	     46.17369566	      0.87721686	    -11.46898587	     14.21346225	      0.24807171	     25.19383529	     11.82027022	      0.00000000	     -0.08354386	     -1.23113519	      1.75792892	     -0.15514930	     -1.63740981	      1.86779947	     -0.13725421	     -2.99338211	      1.86779947	     -0.09548228	     -2.99338211	      1.53818780	     -0.07757883	     -2.51053089	      1.42831724	     -0.04773696	     -1.90702842	      1.31844669	     -0.59674544	    -13.92684755	      9.77707326	      0.00000000	      0.00000000	     23.93839191	     10.24458343	    -26.75911468	     50.44374213	      3.76739607	    140.11139049	      0.32329852	      6.61029155	    -39.18601055	    -17.46766710	     11.04933342	    -21.13733895	     35.75665287	     28.76053731	     84.37122164	    -16.34922227	     -7.99034824
